<svg width="138" height="32" fill="none" xmlns="http://www.w3.org/2000/svg"><path d="M44.587 24.344h2.684a.159.159 0 0 0 .164-.164v-8.706h3.188a.159.159 0 0 0 .165-.165V12.92a.159.159 0 0 0-.165-.165H47.44c0-1.223.007-2.597 1.556-2.597.358 0 1.013.036 1.33.283 0 0 .225-.041.228-.043l.673-1.893c.037-.128.013-.2-.086-.289a4.805 4.805 0 0 0-2.658-.686c-2.571 0-4.061.824-4.061 5.042v.18H42.17a.16.16 0 0 0-.165.164v2.39a.16.16 0 0 0 .165.165h2.25v8.705a.16.16 0 0 0 .167.168ZM119.603 24.344h2.683a.16.16 0 0 0 .165-.164v-8.706h3.186a.159.159 0 0 0 .165-.165V12.92a.159.159 0 0 0-.165-.165h-3.181v-.193c0-1.696.217-2.404 1.557-2.404.358 0 1.011.036 1.327.283 0 0 .226-.04.229-.043l.673-1.893c.041-.128.013-.2-.086-.289a4.802 4.802 0 0 0-2.657-.686c-2.572 0-4.061.824-4.061 5.042v.18h-2.251c-.088-.008-.172.076-.166.164v2.39c-.006.089.078.172.166.165h2.251v8.705c-.01.09.075.176.165.168ZM106.369 20.846c0 3.224 2.582 3.703 4.115 3.703.669 0 2.309-.133 3.129-1.364l.279-.419.231 1.433a.308.308 0 0 0 .288.197h1.843a.16.16 0 0 0 .164-.166v-6.407c0-1.39-.318-3.275-1.839-4.353-1.521-1.078-3.947-1.286-5.938-.527l-.395.158c-.031.012-.328.134-.358.163-.106.062-.024.255.012.337l.743 1.827c.034.08.083.133.163.1a6.024 6.024 0 0 1 2.05-.425c1.762 0 2.505.767 2.505 2.566v.385c-.876-.63-1.866-.853-2.945-.853-1.503.002-4.047.475-4.047 3.645Zm5.058-1.497c.739.028 1.561.26 1.978.924v1.044c-.511.546-1.33.815-2.07.815-1.885 0-2.281-.83-2.281-1.528 0-.469.31-1.334 2.373-1.255ZM90.389 24.4c4.69 0 8.096-3.525 8.096-8.381s-3.48-8.501-8.096-8.501H84.05a.159.159 0 0 0-.166.166v16.55a.16.16 0 0 0 .166.166h6.339Zm-3.47-14.117h2.922c3.198 0 5.608 2.508 5.608 5.827 0 3.253-2.358 5.614-5.608 5.614H86.92v-11.44ZM21.646 13.078c-.025-3.216-2.122-5.553-4.983-5.553H9.958c-.088-.004-.165.077-.163.165l.132 16.448a.164.164 0 0 0 .168.167h2.684a.162.162 0 0 0 .163-.165l-.047-5.58h3.856c3.012.033 4.92-2.655 4.895-5.482Zm-8.767 2.708-.043-5.323h3.552c1.073 0 2.225.695 2.241 2.645 0 1.317-.726 2.697-2.2 2.678h-3.55ZM79.619 24.326c1.034 0 1.35 0 2.182-.284.064-.062.074-.159.058-.246l-.5-2.1c-.081-.103-.209-.095-.322-.06-.319.049-.641.07-.964.063-1.293 0-1.345-.86-1.345-2.979v-3.24h2.793a.159.159 0 0 0 .166-.165V12.92a.159.159 0 0 0-.166-.165h-2.793V7.677a.16.16 0 0 0-.165-.165H75.88a.159.159 0 0 0-.165.165v5.084h-1.498a.159.159 0 0 0-.164.164v2.39a.16.16 0 0 0 .165.165h1.497v3.904c-.005 4.104 1.555 4.942 3.904 4.942ZM132.665 24.326c1.034 0 1.352 0 2.182-.284.064-.062.074-.159.058-.246l-.499-2.1c-.086-.107-.203-.097-.323-.06-.319.049-.641.07-.964.063-1.293 0-1.345-.86-1.345-2.979v-3.24h2.794a.158.158 0 0 0 .165-.165V12.92a.158.158 0 0 0-.165-.165h-2.794V7.677a.159.159 0 0 0-.165-.165h-2.683a.158.158 0 0 0-.165.165v5.084h-1.498a.158.158 0 0 0-.164.164v2.39a.16.16 0 0 0 .164.165h1.498v3.904c-.005 4.104 1.556 4.942 3.904 4.942ZM135.686 9.507c-.002.019.015.037.034.034h.357c.018.002.036-.015.035-.034v-.47h.15l.234.47c.005.02.024.035.044.034h.345a.034.034 0 0 0 .033-.034L136.617 9a.53.53 0 0 0 .293-.479c0-.294-.127-.582-.653-.582h-.535c-.025 0-.034.01-.034.034l-.002 1.535Zm.795-1.012c0 .185-.229.142-.356.142v-.292c.131 0 .356-.04.356.15Z" fill="#000"/><path d="M134.821 8.785c0 .868.826 1.543 1.668 1.374a1.425 1.425 0 0 0 1.095-1.103c.167-.851-.513-1.674-1.372-1.671-.757 0-1.393.651-1.391 1.4Zm1.389-1.137c.696-.002 1.249.664 1.114 1.354-.087.441-.448.806-.887.895-.682.138-1.353-.408-1.354-1.112a1.184 1.184 0 0 1 1.127-1.137ZM34.085 12.759a.159.159 0 0 0-.165.165v11.252a.159.159 0 0 0 .165.165h2.684a.159.159 0 0 0 .164-.165v-5.77c0-1.185.285-2.778 2.754-2.917l.907-.011a.159.159 0 0 0 .164-.165V12.92a.159.159 0 0 0-.164-.165l-.895.011c-1.416.08-2.496.762-3.512 1.703l-.245-1.51c-.073-.179-.145-.2-.229-.2h-1.628ZM99.903 12.759a.159.159 0 0 0-.164.165v11.252a.159.159 0 0 0 .164.165h2.684a.158.158 0 0 0 .164-.165v-5.77c0-1.185.285-2.778 2.754-2.917l.907-.011a.158.158 0 0 0 .164-.165V12.92a.158.158 0 0 0-.164-.165l-.895.011c-.923.052-1.968.267-3.249 1.458l-.263.245-.245-1.513c-.073-.18-.145-.2-.229-.2l-1.628.003ZM62.002 18.544c-.133-3.559-2.235-5.796-5.475-5.766-3.24.031-5.458 2.608-5.458 5.86 0 3.25 2.388 5.708 5.766 5.731 1.835.011 3.283-.813 4.176-2.119a.101.101 0 0 0-.022-.13L59.291 20.8a.098.098 0 0 0-.132.017 2.828 2.828 0 0 1-2.186 1.058c-1.306 0-2.412-.92-2.78-2.189h7.616c.078 0 .15-.063.159-.141.035-.333.046-.667.034-1.002Zm-7.872-.863a2.576 2.576 0 0 1 2.485-2.407c1.497-.024 2.358 1.124 2.4 2.407H54.13ZM27.27 12.778c-3.24.031-5.462 2.608-5.462 5.86 0 3.25 2.387 5.708 5.765 5.731 1.835.011 3.285-.813 4.175-2.119a.1.1 0 0 0-.02-.13l-1.69-1.319a.098.098 0 0 0-.132.017 2.86 2.86 0 0 1-2.194 1.058c-1.307 0-2.413-.92-2.782-2.189h7.613a.165.165 0 0 0 .16-.141c.382-3.451-1.712-6.803-5.433-6.768Zm-2.399 4.903a2.58 2.58 0 0 1 2.484-2.407c1.497-.024 2.358 1.124 2.4 2.407h-4.884ZM62.886 18.59c0-3.182 2.43-5.8 5.836-5.8 2.05 0 3.345.675 4.372 1.79a.12.12 0 0 1 0 .156l-1.778 1.913a.117.117 0 0 1-.165 0c-.68-.698-1.374-1.14-2.451-1.14-1.578 0-2.7 1.393-2.7 3.035 0 1.645 1.088 3.119 2.825 3.119 1.013 0 1.721-.417 2.453-1.09a.145.145 0 0 1 .197 0l1.657 1.676a.146.146 0 0 1 0 .197c-1.05 1.14-2.294 1.938-4.45 1.938a5.765 5.765 0 0 1-5.797-5.795Z" fill="#000"/><path d="M23.071 0H3.33C1.673 0 .376 1.56.645 3.172L5.94 29.74A2.736 2.736 0 0 0 8.623 32h9.17a2.736 2.736 0 0 0 2.684-2.26l1.073-5.428h-3.11l-.926 4.646H8.893L3.704 3.044h18.999l-.895 4.414h3.084l.852-4.285c.277-1.61-1.018-3.174-2.673-3.172Z" fill="#000"/></svg>